<svg xmlns="http://www.w3.org/2000/svg" width="396" height="124" viewBox="0 0 396 124" role="img" aria-label="YellowBoy: A Game Boy emulator that fits in the ESP32's internal SRAM, no PSRAM. Analog audio, SD ROMs."><title>YellowBoy: A Game Boy emulator that fits in the ESP32's internal SRAM, no PSRAM. Analog audio, SD ROMs.</title><rect x="0.5" y="0.5" width="395" height="123" rx="6" fill="#FAFAFA" stroke="#d9d9d9"/><g transform="translate(14,14)"><rect x="10" y="1.5" width="76" height="93" rx="7" fill="#E7E2D6" stroke="#555555" stroke-width="1"/><rect x="21.5" y="6.5" width="53" height="40.5" rx="5" fill="#121212"/><rect x="26.5" y="10.2" width="43" height="33.2" rx="1.2" fill="#2C2F31"/><polygon points="52,10.2 69.5,10.2 69.5,24 " fill="#FFFFFF" fill-opacity="0.07"/><polygon points="26.0,54.2 33.0,54.2 33.0,60.5 39.3,60.5 39.3,67.5 33.0,67.5 33.0,73.8 26.0,73.8 26.0,67.5 19.7,67.5 19.7,60.5 26.0,60.5" fill="#6B6E3A" stroke="#121212" stroke-width="2.6" stroke-linejoin="round"/><circle cx="29.5" cy="64" r="1.7" fill="#4E5129"/><polygon points="63.0,53.2 70.0,53.2 70.0,59.5 76.3,59.5 76.3,66.5 70.0,66.5 70.0,72.8 63.0,72.8 63.0,66.5 56.7,66.5 56.7,59.5 63.0,59.5" fill="#6B6E3A" stroke="#121212" stroke-width="2.6" stroke-linejoin="round"/><circle cx="66.5" cy="63" r="1.7" fill="#4E5129"/><rect x="39" y="53.2" width="18" height="4.2" rx="2.1" fill="#121212"/><rect x="41" y="54.4" width="14" height="1.8" rx="0.9" fill="#3a3d3f"/><rect x="39" y="59.0" width="18" height="4.2" rx="2.1" fill="#121212"/><rect x="41" y="60.2" width="14" height="1.8" rx="0.9" fill="#3a3d3f"/><rect x="39" y="64.8" width="18" height="4.2" rx="2.1" fill="#121212"/><rect x="41" y="66.0" width="14" height="1.8" rx="0.9" fill="#3a3d3f"/></g><text x="126" y="33" fill="#111111" font-family="'EB Garamond', Garamond, 'Times New Roman', Georgia, serif" font-size="19" font-weight="700">YellowBoy</text><line x1="126" y1="41" x2="150" y2="41" stroke="#A51C30" stroke-width="2"/><text x="126" y="58" fill="#555555" font-family="'EB Garamond', Garamond, 'Times New Roman', Georgia, serif" font-size="13" font-weight="400" font-style="italic">C++ · ESP32</text><text x="126" y="79" fill="#111111" font-family="'EB Garamond', Garamond, 'Times New Roman', Georgia, serif" font-size="13" font-weight="400">A Game Boy emulator that fits in</text><text x="126" y="95" fill="#111111" font-family="'EB Garamond', Garamond, 'Times New Roman', Georgia, serif" font-size="13" font-weight="400">the ESP32's internal SRAM, no</text><text x="126" y="111" fill="#111111" font-family="'EB Garamond', Garamond, 'Times New Roman', Georgia, serif" font-size="13" font-weight="400">PSRAM. Analog audio, SD ROMs.</text></svg>
