<svg xmlns="http://www.w3.org/2000/svg" width="396" height="124" viewBox="0 0 396 124" role="img" aria-label="Engine Sim: A realistic engine sound simulator that runs in your browser."><title>Engine Sim: A realistic engine sound simulator that runs in your browser.</title><rect x="0.5" y="0.5" width="395" height="123" rx="6" fill="#FAFAFA" stroke="#d9d9d9"/><g transform="translate(14,14)"><line x1="0" y1="48" x2="96" y2="48" stroke="#d9d9d9"/><polyline points="0,48.0 1,48.0 2,47.9 3,47.7 4,47.4 5,47.1 6,47.0 7,47.3 8,48.0 9,49.2 10,50.8 11,52.4 12,53.6 13,54.0 14,53.3 15,51.2 16,48.0 17,43.9 18,39.7 19,36.1 20,33.9 21,33.9 22,36.3 23,41.2 24,48.0 25,55.7 26,63.2 27,69.0 28,71.9 29,71.2 30,66.6 31,58.5 32,48.0 33,36.7 34,26.4 35,18.9 36,15.6 37,17.2 38,23.9 39,34.7 40,48.0 41,61.8 42,73.8 43,82.2 44,85.4 45,82.8 46,74.8 47,62.5 48,48.0 49,33.5 50,21.2 51,13.2 52,10.6 53,13.8 54,22.2 55,34.2 56,48.0 57,61.3 58,72.1 59,78.8 60,80.4 61,77.1 62,69.6 63,59.3 64,48.0 65,37.5 66,29.4 67,24.8 68,24.1 69,27.0 70,32.8 71,40.3 72,48.0 73,54.8 74,59.7 75,62.1 76,62.1 77,59.9 78,56.3 79,52.1 80,48.0 81,44.8 82,42.7 83,42.0 84,42.4 85,43.6 86,45.2 87,46.8 88,48.0 89,48.7 90,49.0 91,48.9 92,48.6 93,48.3 94,48.1 95,48.0 96,48.0" fill="none" stroke="#A51C30" stroke-width="1.5" stroke-linejoin="round"/></g><text x="126" y="33" fill="#111111" font-family="'EB Garamond', Garamond, 'Times New Roman', Georgia, serif" font-size="19" font-weight="700">Engine Sim</text><line x1="126" y1="41" x2="150" y2="41" stroke="#A51C30" stroke-width="2"/><text x="126" y="58" fill="#555555" font-family="'EB Garamond', Garamond, 'Times New Roman', Georgia, serif" font-size="13" font-weight="400" font-style="italic">JavaScript · live demo</text><text x="126" y="79" fill="#111111" font-family="'EB Garamond', Garamond, 'Times New Roman', Georgia, serif" font-size="13" font-weight="400">A realistic engine sound</text><text x="126" y="95" fill="#111111" font-family="'EB Garamond', Garamond, 'Times New Roman', Georgia, serif" font-size="13" font-weight="400">simulator that runs in your</text><text x="126" y="111" fill="#111111" font-family="'EB Garamond', Garamond, 'Times New Roman', Georgia, serif" font-size="13" font-weight="400">browser.</text></svg>
