<svg xmlns="http://www.w3.org/2000/svg" width="396" height="124" viewBox="0 0 396 124" role="img" aria-label="Tree-Gen: Generates a wide variety of tree models you can download. Free, runs in the browser."><title>Tree-Gen: Generates a wide variety of tree models you can download. Free, runs in the browser.</title><rect x="0.5" y="0.5" width="395" height="123" rx="6" fill="#161B22" stroke="#30363d"/><g transform="translate(14,14)"><line x1="48.0" y1="94.0" x2="48.0" y2="70.0" stroke="#e8e8e8" stroke-width="3.30" stroke-linecap="round"/><line x1="48.0" y1="70.0" x2="40.6" y2="53.9" stroke="#e8e8e8" stroke-width="2.85" stroke-linecap="round"/><line x1="40.6" y1="53.9" x2="30.6" y2="45.3" stroke="#e8e8e8" stroke-width="2.40" stroke-linecap="round"/><line x1="30.6" y1="45.3" x2="21.3" y2="42.6" stroke="#e8e8e8" stroke-width="1.95" stroke-linecap="round"/><line x1="21.3" y1="42.6" x2="14.2" y2="43.7" stroke="#e8e8e8" stroke-width="1.50" stroke-linecap="round"/><line x1="14.2" y1="43.7" x2="9.7" y2="46.6" stroke="#e8e8e8" stroke-width="1.05" stroke-linecap="round"/><line x1="9.7" y1="46.6" x2="7.6" y2="49.9" stroke="#e8e8e8" stroke-width="0.60" stroke-linecap="round"/><circle cx="7.6" cy="49.9" r="1.8" fill="#E8788A"/><line x1="9.7" y1="46.6" x2="5.8" y2="47.2" stroke="#e8e8e8" stroke-width="0.60" stroke-linecap="round"/><circle cx="5.8" cy="47.2" r="1.8" fill="#E8788A"/><line x1="14.2" y1="43.7" x2="9.1" y2="42.2" stroke="#e8e8e8" stroke-width="1.05" stroke-linecap="round"/><line x1="9.1" y1="42.2" x2="5.2" y2="42.8" stroke="#e8e8e8" stroke-width="0.60" stroke-linecap="round"/><circle cx="5.2" cy="42.8" r="1.8" fill="#E8788A"/><line x1="9.1" y1="42.2" x2="6.1" y2="39.6" stroke="#e8e8e8" stroke-width="0.60" stroke-linecap="round"/><circle cx="6.1" cy="39.6" r="1.8" fill="#E8788A"/><line x1="21.3" y1="42.6" x2="15.8" y2="37.9" stroke="#e8e8e8" stroke-width="1.50" stroke-linecap="round"/><line x1="15.8" y1="37.9" x2="10.7" y2="36.4" stroke="#e8e8e8" stroke-width="1.05" stroke-linecap="round"/><line x1="10.7" y1="36.4" x2="6.8" y2="37.0" stroke="#e8e8e8" stroke-width="0.60" stroke-linecap="round"/><circle cx="6.8" cy="37.0" r="1.8" fill="#E8788A"/><line x1="10.7" y1="36.4" x2="7.7" y2="33.8" stroke="#e8e8e8" stroke-width="0.60" stroke-linecap="round"/><circle cx="7.7" cy="33.8" r="1.8" fill="#E8788A"/><line x1="15.8" y1="37.9" x2="13.6" y2="33.1" stroke="#e8e8e8" stroke-width="1.05" stroke-linecap="round"/><line x1="13.6" y1="33.1" x2="10.6" y2="30.5" stroke="#e8e8e8" stroke-width="0.60" stroke-linecap="round"/><circle cx="10.6" cy="30.5" r="1.8" fill="#E8788A"/><line x1="13.6" y1="33.1" x2="13.6" y2="29.1" stroke="#e8e8e8" stroke-width="0.60" stroke-linecap="round"/><circle cx="13.6" cy="29.1" r="1.8" fill="#E8788A"/><line x1="30.6" y1="45.3" x2="26.6" y2="36.4" stroke="#e8e8e8" stroke-width="1.95" stroke-linecap="round"/><line x1="26.6" y1="36.4" x2="21.1" y2="31.7" stroke="#e8e8e8" stroke-width="1.50" stroke-linecap="round"/><line x1="21.1" y1="31.7" x2="16.0" y2="30.3" stroke="#e8e8e8" stroke-width="1.05" stroke-linecap="round"/><line x1="16.0" y1="30.3" x2="12.1" y2="30.9" stroke="#e8e8e8" stroke-width="0.60" stroke-linecap="round"/><circle cx="12.1" cy="30.9" r="1.8" fill="#E8788A"/><line x1="16.0" y1="30.3" x2="13.0" y2="27.7" stroke="#e8e8e8" stroke-width="0.60" stroke-linecap="round"/><circle cx="13.0" cy="27.7" r="1.8" fill="#E8788A"/><line x1="21.1" y1="31.7" x2="18.9" y2="26.9" stroke="#e8e8e8" stroke-width="1.05" stroke-linecap="round"/><line x1="18.9" y1="26.9" x2="15.9" y2="24.3" stroke="#e8e8e8" stroke-width="0.60" stroke-linecap="round"/><circle cx="15.9" cy="24.3" r="1.8" fill="#E8788A"/><line x1="18.9" y1="26.9" x2="18.9" y2="23.0" stroke="#e8e8e8" stroke-width="0.60" stroke-linecap="round"/><circle cx="18.9" cy="23.0" r="1.8" fill="#E8788A"/><line x1="26.6" y1="36.4" x2="26.6" y2="29.2" stroke="#e8e8e8" stroke-width="1.50" stroke-linecap="round"/><line x1="26.6" y1="29.2" x2="24.4" y2="24.4" stroke="#e8e8e8" stroke-width="1.05" stroke-linecap="round"/><line x1="24.4" y1="24.4" x2="21.4" y2="21.8" stroke="#e8e8e8" stroke-width="0.60" stroke-linecap="round"/><circle cx="21.4" cy="21.8" r="1.8" fill="#E8788A"/><line x1="24.4" y1="24.4" x2="24.4" y2="20.5" stroke="#e8e8e8" stroke-width="0.60" stroke-linecap="round"/><circle cx="24.4" cy="20.5" r="1.8" fill="#E8788A"/><line x1="26.6" y1="29.2" x2="28.8" y2="24.4" stroke="#e8e8e8" stroke-width="1.05" stroke-linecap="round"/><line x1="28.8" y1="24.4" x2="28.8" y2="20.5" stroke="#e8e8e8" stroke-width="0.60" stroke-linecap="round"/><circle cx="28.8" cy="20.5" r="1.8" fill="#E8788A"/><line x1="28.8" y1="24.4" x2="31.8" y2="21.8" stroke="#e8e8e8" stroke-width="0.60" stroke-linecap="round"/><circle cx="31.8" cy="21.8" r="1.8" fill="#E8788A"/><line x1="40.6" y1="53.9" x2="40.6" y2="40.7" stroke="#e8e8e8" stroke-width="2.40" stroke-linecap="round"/><line x1="40.6" y1="40.7" x2="36.5" y2="31.9" stroke="#e8e8e8" stroke-width="1.95" stroke-linecap="round"/><line x1="36.5" y1="31.9" x2="31.1" y2="27.2" stroke="#e8e8e8" stroke-width="1.50" stroke-linecap="round"/><line x1="31.1" y1="27.2" x2="26.0" y2="25.7" stroke="#e8e8e8" stroke-width="1.05" stroke-linecap="round"/><line x1="26.0" y1="25.7" x2="22.1" y2="26.3" stroke="#e8e8e8" stroke-width="0.60" stroke-linecap="round"/><circle cx="22.1" cy="26.3" r="1.8" fill="#E8788A"/><line x1="26.0" y1="25.7" x2="23.0" y2="23.1" stroke="#e8e8e8" stroke-width="0.60" stroke-linecap="round"/><circle cx="23.0" cy="23.1" r="1.8" fill="#E8788A"/><line x1="31.1" y1="27.2" x2="28.9" y2="22.3" stroke="#e8e8e8" stroke-width="1.05" stroke-linecap="round"/><line x1="28.9" y1="22.3" x2="25.9" y2="19.8" stroke="#e8e8e8" stroke-width="0.60" stroke-linecap="round"/><circle cx="25.9" cy="19.8" r="1.8" fill="#E8788A"/><line x1="28.9" y1="22.3" x2="28.9" y2="18.4" stroke="#e8e8e8" stroke-width="0.60" stroke-linecap="round"/><circle cx="28.9" cy="18.4" r="1.8" fill="#E8788A"/><line x1="36.5" y1="31.9" x2="36.5" y2="24.7" stroke="#e8e8e8" stroke-width="1.50" stroke-linecap="round"/><line x1="36.5" y1="24.7" x2="34.3" y2="19.8" stroke="#e8e8e8" stroke-width="1.05" stroke-linecap="round"/><line x1="34.3" y1="19.8" x2="31.3" y2="17.3" stroke="#e8e8e8" stroke-width="0.60" stroke-linecap="round"/><circle cx="31.3" cy="17.3" r="1.8" fill="#E8788A"/><line x1="34.3" y1="19.8" x2="34.3" y2="15.9" stroke="#e8e8e8" stroke-width="0.60" stroke-linecap="round"/><circle cx="34.3" cy="15.9" r="1.8" fill="#E8788A"/><line x1="36.5" y1="24.7" x2="38.8" y2="19.8" stroke="#e8e8e8" stroke-width="1.05" stroke-linecap="round"/><line x1="38.8" y1="19.8" x2="38.8" y2="15.9" stroke="#e8e8e8" stroke-width="0.60" stroke-linecap="round"/><circle cx="38.8" cy="15.9" r="1.8" fill="#E8788A"/><line x1="38.8" y1="19.8" x2="41.7" y2="17.3" stroke="#e8e8e8" stroke-width="0.60" stroke-linecap="round"/><circle cx="41.7" cy="17.3" r="1.8" fill="#E8788A"/><line x1="40.6" y1="40.7" x2="44.7" y2="31.9" stroke="#e8e8e8" stroke-width="1.95" stroke-linecap="round"/><line x1="44.7" y1="31.9" x2="44.7" y2="24.7" stroke="#e8e8e8" stroke-width="1.50" stroke-linecap="round"/><line x1="44.7" y1="24.7" x2="42.4" y2="19.8" stroke="#e8e8e8" stroke-width="1.05" stroke-linecap="round"/><line x1="42.4" y1="19.8" x2="39.4" y2="17.3" stroke="#e8e8e8" stroke-width="0.60" stroke-linecap="round"/><circle cx="39.4" cy="17.3" r="1.8" fill="#E8788A"/><line x1="42.4" y1="19.8" x2="42.4" y2="15.9" stroke="#e8e8e8" stroke-width="0.60" stroke-linecap="round"/><circle cx="42.4" cy="15.9" r="1.8" fill="#E8788A"/><line x1="44.7" y1="24.7" x2="46.9" y2="19.8" stroke="#e8e8e8" stroke-width="1.05" stroke-linecap="round"/><line x1="46.9" y1="19.8" x2="46.9" y2="15.9" stroke="#e8e8e8" stroke-width="0.60" stroke-linecap="round"/><circle cx="46.9" cy="15.9" r="1.8" fill="#E8788A"/><line x1="46.9" y1="19.8" x2="49.9" y2="17.3" stroke="#e8e8e8" stroke-width="0.60" stroke-linecap="round"/><circle cx="49.9" cy="17.3" r="1.8" fill="#E8788A"/><line x1="44.7" y1="31.9" x2="50.1" y2="27.2" stroke="#e8e8e8" stroke-width="1.50" stroke-linecap="round"/><line x1="50.1" y1="27.2" x2="52.3" y2="22.3" stroke="#e8e8e8" stroke-width="1.05" stroke-linecap="round"/><line x1="52.3" y1="22.3" x2="52.3" y2="18.4" stroke="#e8e8e8" stroke-width="0.60" stroke-linecap="round"/><circle cx="52.3" cy="18.4" r="1.8" fill="#E8788A"/><line x1="52.3" y1="22.3" x2="55.3" y2="19.8" stroke="#e8e8e8" stroke-width="0.60" stroke-linecap="round"/><circle cx="55.3" cy="19.8" r="1.8" fill="#E8788A"/><line x1="50.1" y1="27.2" x2="55.2" y2="25.7" stroke="#e8e8e8" stroke-width="1.05" stroke-linecap="round"/><line x1="55.2" y1="25.7" x2="58.2" y2="23.1" stroke="#e8e8e8" stroke-width="0.60" stroke-linecap="round"/><circle cx="58.2" cy="23.1" r="1.8" fill="#E8788A"/><line x1="55.2" y1="25.7" x2="59.1" y2="26.3" stroke="#e8e8e8" stroke-width="0.60" stroke-linecap="round"/><circle cx="59.1" cy="26.3" r="1.8" fill="#E8788A"/><line x1="48.0" y1="70.0" x2="55.4" y2="53.9" stroke="#e8e8e8" stroke-width="2.85" stroke-linecap="round"/><line x1="55.4" y1="53.9" x2="55.4" y2="40.7" stroke="#e8e8e8" stroke-width="2.40" stroke-linecap="round"/><line x1="55.4" y1="40.7" x2="51.3" y2="31.9" stroke="#e8e8e8" stroke-width="1.95" stroke-linecap="round"/><line x1="51.3" y1="31.9" x2="45.9" y2="27.2" stroke="#e8e8e8" stroke-width="1.50" stroke-linecap="round"/><line x1="45.9" y1="27.2" x2="40.8" y2="25.7" stroke="#e8e8e8" stroke-width="1.05" stroke-linecap="round"/><line x1="40.8" y1="25.7" x2="36.9" y2="26.3" stroke="#e8e8e8" stroke-width="0.60" stroke-linecap="round"/><circle cx="36.9" cy="26.3" r="1.8" fill="#E8788A"/><line x1="40.8" y1="25.7" x2="37.8" y2="23.1" stroke="#e8e8e8" stroke-width="0.60" stroke-linecap="round"/><circle cx="37.8" cy="23.1" r="1.8" fill="#E8788A"/><line x1="45.9" y1="27.2" x2="43.7" y2="22.3" stroke="#e8e8e8" stroke-width="1.05" stroke-linecap="round"/><line x1="43.7" y1="22.3" x2="40.7" y2="19.8" stroke="#e8e8e8" stroke-width="0.60" stroke-linecap="round"/><circle cx="40.7" cy="19.8" r="1.8" fill="#E8788A"/><line x1="43.7" y1="22.3" x2="43.7" y2="18.4" stroke="#e8e8e8" stroke-width="0.60" stroke-linecap="round"/><circle cx="43.7" cy="18.4" r="1.8" fill="#E8788A"/><line x1="51.3" y1="31.9" x2="51.3" y2="24.7" stroke="#e8e8e8" stroke-width="1.50" stroke-linecap="round"/><line x1="51.3" y1="24.7" x2="49.1" y2="19.8" stroke="#e8e8e8" stroke-width="1.05" stroke-linecap="round"/><line x1="49.1" y1="19.8" x2="46.1" y2="17.3" stroke="#e8e8e8" stroke-width="0.60" stroke-linecap="round"/><circle cx="46.1" cy="17.3" r="1.8" fill="#E8788A"/><line x1="49.1" y1="19.8" x2="49.1" y2="15.9" stroke="#e8e8e8" stroke-width="0.60" stroke-linecap="round"/><circle cx="49.1" cy="15.9" r="1.8" fill="#E8788A"/><line x1="51.3" y1="24.7" x2="53.6" y2="19.8" stroke="#e8e8e8" stroke-width="1.05" stroke-linecap="round"/><line x1="53.6" y1="19.8" x2="53.6" y2="15.9" stroke="#e8e8e8" stroke-width="0.60" stroke-linecap="round"/><circle cx="53.6" cy="15.9" r="1.8" fill="#E8788A"/><line x1="53.6" y1="19.8" x2="56.6" y2="17.3" stroke="#e8e8e8" stroke-width="0.60" stroke-linecap="round"/><circle cx="56.6" cy="17.3" r="1.8" fill="#E8788A"/><line x1="55.4" y1="40.7" x2="59.5" y2="31.9" stroke="#e8e8e8" stroke-width="1.95" stroke-linecap="round"/><line x1="59.5" y1="31.9" x2="59.5" y2="24.7" stroke="#e8e8e8" stroke-width="1.50" stroke-linecap="round"/><line x1="59.5" y1="24.7" x2="57.2" y2="19.8" stroke="#e8e8e8" stroke-width="1.05" stroke-linecap="round"/><line x1="57.2" y1="19.8" x2="54.3" y2="17.3" stroke="#e8e8e8" stroke-width="0.60" stroke-linecap="round"/><circle cx="54.3" cy="17.3" r="1.8" fill="#E8788A"/><line x1="57.2" y1="19.8" x2="57.2" y2="15.9" stroke="#e8e8e8" stroke-width="0.60" stroke-linecap="round"/><circle cx="57.2" cy="15.9" r="1.8" fill="#E8788A"/><line x1="59.5" y1="24.7" x2="61.7" y2="19.8" stroke="#e8e8e8" stroke-width="1.05" stroke-linecap="round"/><line x1="61.7" y1="19.8" x2="61.7" y2="15.9" stroke="#e8e8e8" stroke-width="0.60" stroke-linecap="round"/><circle cx="61.7" cy="15.9" r="1.8" fill="#E8788A"/><line x1="61.7" y1="19.8" x2="64.7" y2="17.3" stroke="#e8e8e8" stroke-width="0.60" stroke-linecap="round"/><circle cx="64.7" cy="17.3" r="1.8" fill="#E8788A"/><line x1="59.5" y1="31.9" x2="64.9" y2="27.2" stroke="#e8e8e8" stroke-width="1.50" stroke-linecap="round"/><line x1="64.9" y1="27.2" x2="67.1" y2="22.3" stroke="#e8e8e8" stroke-width="1.05" stroke-linecap="round"/><line x1="67.1" y1="22.3" x2="67.1" y2="18.4" stroke="#e8e8e8" stroke-width="0.60" stroke-linecap="round"/><circle cx="67.1" cy="18.4" r="1.8" fill="#E8788A"/><line x1="67.1" y1="22.3" x2="70.1" y2="19.8" stroke="#e8e8e8" stroke-width="0.60" stroke-linecap="round"/><circle cx="70.1" cy="19.8" r="1.8" fill="#E8788A"/><line x1="64.9" y1="27.2" x2="70.0" y2="25.7" stroke="#e8e8e8" stroke-width="1.05" stroke-linecap="round"/><line x1="70.0" y1="25.7" x2="73.0" y2="23.1" stroke="#e8e8e8" stroke-width="0.60" stroke-linecap="round"/><circle cx="73.0" cy="23.1" r="1.8" fill="#E8788A"/><line x1="70.0" y1="25.7" x2="73.9" y2="26.3" stroke="#e8e8e8" stroke-width="0.60" stroke-linecap="round"/><circle cx="73.9" cy="26.3" r="1.8" fill="#E8788A"/><line x1="55.4" y1="53.9" x2="65.4" y2="45.3" stroke="#e8e8e8" stroke-width="2.40" stroke-linecap="round"/><line x1="65.4" y1="45.3" x2="69.4" y2="36.4" stroke="#e8e8e8" stroke-width="1.95" stroke-linecap="round"/><line x1="69.4" y1="36.4" x2="69.4" y2="29.2" stroke="#e8e8e8" stroke-width="1.50" stroke-linecap="round"/><line x1="69.4" y1="29.2" x2="67.2" y2="24.4" stroke="#e8e8e8" stroke-width="1.05" stroke-linecap="round"/><line x1="67.2" y1="24.4" x2="64.2" y2="21.8" stroke="#e8e8e8" stroke-width="0.60" stroke-linecap="round"/><circle cx="64.2" cy="21.8" r="1.8" fill="#E8788A"/><line x1="67.2" y1="24.4" x2="67.2" y2="20.5" stroke="#e8e8e8" stroke-width="0.60" stroke-linecap="round"/><circle cx="67.2" cy="20.5" r="1.8" fill="#E8788A"/><line x1="69.4" y1="29.2" x2="71.6" y2="24.4" stroke="#e8e8e8" stroke-width="1.05" stroke-linecap="round"/><line x1="71.6" y1="24.4" x2="71.6" y2="20.5" stroke="#e8e8e8" stroke-width="0.60" stroke-linecap="round"/><circle cx="71.6" cy="20.5" r="1.8" fill="#E8788A"/><line x1="71.6" y1="24.4" x2="74.6" y2="21.8" stroke="#e8e8e8" stroke-width="0.60" stroke-linecap="round"/><circle cx="74.6" cy="21.8" r="1.8" fill="#E8788A"/><line x1="69.4" y1="36.4" x2="74.9" y2="31.7" stroke="#e8e8e8" stroke-width="1.50" stroke-linecap="round"/><line x1="74.9" y1="31.7" x2="77.1" y2="26.9" stroke="#e8e8e8" stroke-width="1.05" stroke-linecap="round"/><line x1="77.1" y1="26.9" x2="77.1" y2="23.0" stroke="#e8e8e8" stroke-width="0.60" stroke-linecap="round"/><circle cx="77.1" cy="23.0" r="1.8" fill="#E8788A"/><line x1="77.1" y1="26.9" x2="80.1" y2="24.3" stroke="#e8e8e8" stroke-width="0.60" stroke-linecap="round"/><circle cx="80.1" cy="24.3" r="1.8" fill="#E8788A"/><line x1="74.9" y1="31.7" x2="80.0" y2="30.3" stroke="#e8e8e8" stroke-width="1.05" stroke-linecap="round"/><line x1="80.0" y1="30.3" x2="83.0" y2="27.7" stroke="#e8e8e8" stroke-width="0.60" stroke-linecap="round"/><circle cx="83.0" cy="27.7" r="1.8" fill="#E8788A"/><line x1="80.0" y1="30.3" x2="83.9" y2="30.9" stroke="#e8e8e8" stroke-width="0.60" stroke-linecap="round"/><circle cx="83.9" cy="30.9" r="1.8" fill="#E8788A"/><line x1="65.4" y1="45.3" x2="74.7" y2="42.6" stroke="#e8e8e8" stroke-width="1.95" stroke-linecap="round"/><line x1="74.7" y1="42.6" x2="80.2" y2="37.9" stroke="#e8e8e8" stroke-width="1.50" stroke-linecap="round"/><line x1="80.2" y1="37.9" x2="82.4" y2="33.1" stroke="#e8e8e8" stroke-width="1.05" stroke-linecap="round"/><line x1="82.4" y1="33.1" x2="82.4" y2="29.1" stroke="#e8e8e8" stroke-width="0.60" stroke-linecap="round"/><circle cx="82.4" cy="29.1" r="1.8" fill="#E8788A"/><line x1="82.4" y1="33.1" x2="85.4" y2="30.5" stroke="#e8e8e8" stroke-width="0.60" stroke-linecap="round"/><circle cx="85.4" cy="30.5" r="1.8" fill="#E8788A"/><line x1="80.2" y1="37.9" x2="85.3" y2="36.4" stroke="#e8e8e8" stroke-width="1.05" stroke-linecap="round"/><line x1="85.3" y1="36.4" x2="88.3" y2="33.8" stroke="#e8e8e8" stroke-width="0.60" stroke-linecap="round"/><circle cx="88.3" cy="33.8" r="1.8" fill="#E8788A"/><line x1="85.3" y1="36.4" x2="89.2" y2="37.0" stroke="#e8e8e8" stroke-width="0.60" stroke-linecap="round"/><circle cx="89.2" cy="37.0" r="1.8" fill="#E8788A"/><line x1="74.7" y1="42.6" x2="81.8" y2="43.7" stroke="#e8e8e8" stroke-width="1.50" stroke-linecap="round"/><line x1="81.8" y1="43.7" x2="86.9" y2="42.2" stroke="#e8e8e8" stroke-width="1.05" stroke-linecap="round"/><line x1="86.9" y1="42.2" x2="89.9" y2="39.6" stroke="#e8e8e8" stroke-width="0.60" stroke-linecap="round"/><circle cx="89.9" cy="39.6" r="1.8" fill="#E8788A"/><line x1="86.9" y1="42.2" x2="90.8" y2="42.8" stroke="#e8e8e8" stroke-width="0.60" stroke-linecap="round"/><circle cx="90.8" cy="42.8" r="1.8" fill="#E8788A"/><line x1="81.8" y1="43.7" x2="86.3" y2="46.6" stroke="#e8e8e8" stroke-width="1.05" stroke-linecap="round"/><line x1="86.3" y1="46.6" x2="90.2" y2="47.2" stroke="#e8e8e8" stroke-width="0.60" stroke-linecap="round"/><circle cx="90.2" cy="47.2" r="1.8" fill="#E8788A"/><line x1="86.3" y1="46.6" x2="88.4" y2="49.9" stroke="#e8e8e8" stroke-width="0.60" stroke-linecap="round"/><circle cx="88.4" cy="49.9" r="1.8" fill="#E8788A"/></g><text x="126" y="33" fill="#e8e8e8" font-family="'EB Garamond', Garamond, 'Times New Roman', Georgia, serif" font-size="19" font-weight="700">Tree-Gen</text><line x1="126" y1="41" x2="150" y2="41" stroke="#E8788A" stroke-width="2"/><text x="126" y="58" fill="#a8a8a8" font-family="'EB Garamond', Garamond, 'Times New Roman', Georgia, serif" font-size="13" font-weight="400" font-style="italic">JavaScript · live demo</text><text x="126" y="79" fill="#e8e8e8" font-family="'EB Garamond', Garamond, 'Times New Roman', Georgia, serif" font-size="13" font-weight="400">Generates a wide variety of tree</text><text x="126" y="95" fill="#e8e8e8" font-family="'EB Garamond', Garamond, 'Times New Roman', Georgia, serif" font-size="13" font-weight="400">models you can download.</text><text x="126" y="111" fill="#e8e8e8" font-family="'EB Garamond', Garamond, 'Times New Roman', Georgia, serif" font-size="13" font-weight="400">Free, runs in the browser.</text></svg>
