<svg xmlns="http://www.w3.org/2000/svg" width="396" height="124" viewBox="0 0 396 124" role="img" aria-label="Open LiDAR: Open source 360° LiDAR and robot platform. 240 Hz real-time mapping, slip ring removed."><title>Open LiDAR: Open source 360° LiDAR and robot platform. 240 Hz real-time mapping, slip ring removed.</title><rect x="0.5" y="0.5" width="395" height="123" rx="6" fill="#FAFAFA" stroke="#d9d9d9"/><g transform="translate(14,14)"><circle cx="48" cy="48" r="14.7" fill="none" stroke="#d9d9d9" stroke-width="0.8"/><circle cx="48" cy="48" r="29.3" fill="none" stroke="#d9d9d9" stroke-width="0.8"/><circle cx="48" cy="48" r="44.0" fill="none" stroke="#d9d9d9" stroke-width="0.8"/><line x1="48" y1="48" x2="92.0" y2="48.0" stroke="#d9d9d9" stroke-width="0.6"/><line x1="48" y1="48" x2="86.1" y2="70.0" stroke="#d9d9d9" stroke-width="0.6"/><line x1="48" y1="48" x2="70.0" y2="86.1" stroke="#d9d9d9" stroke-width="0.6"/><line x1="48" y1="48" x2="48.0" y2="92.0" stroke="#d9d9d9" stroke-width="0.6"/><line x1="48" y1="48" x2="26.0" y2="86.1" stroke="#d9d9d9" stroke-width="0.6"/><line x1="48" y1="48" x2="9.9" y2="70.0" stroke="#d9d9d9" stroke-width="0.6"/><line x1="48" y1="48" x2="4.0" y2="48.0" stroke="#d9d9d9" stroke-width="0.6"/><line x1="48" y1="48" x2="9.9" y2="26.0" stroke="#d9d9d9" stroke-width="0.6"/><line x1="48" y1="48" x2="26.0" y2="9.9" stroke="#d9d9d9" stroke-width="0.6"/><line x1="48" y1="48" x2="48.0" y2="4.0" stroke="#d9d9d9" stroke-width="0.6"/><line x1="48" y1="48" x2="70.0" y2="9.9" stroke="#d9d9d9" stroke-width="0.6"/><line x1="48" y1="48" x2="86.1" y2="26.0" stroke="#d9d9d9" stroke-width="0.6"/><path d="M48 48 L68.7 9.2 A44 44 0 0 1 86.8 27.3 Z" fill="#A51C30" fill-opacity="0.13"/><line x1="48" y1="48" x2="86.8" y2="27.3" stroke="#A51C30" stroke-width="1.2"/><circle cx="85.6" cy="48.0" r="1.0" fill="#111111" fill-opacity="0.55"/><circle cx="87.4" cy="50.8" r="1.0" fill="#111111" fill-opacity="0.55"/><circle cx="89.0" cy="53.8" r="1.0" fill="#111111" fill-opacity="0.55"/><circle cx="88.6" cy="56.6" r="1.0" fill="#111111" fill-opacity="0.55"/><circle cx="88.0" cy="59.5" r="1.0" fill="#111111" fill-opacity="0.55"/><circle cx="86.7" cy="62.1" r="1.0" fill="#111111" fill-opacity="0.55"/><circle cx="62.8" cy="54.6" r="1.0" fill="#A51C30" fill-opacity="0.95"/><circle cx="61.1" cy="54.9" r="1.0" fill="#A51C30" fill-opacity="0.95"/><circle cx="60.0" cy="55.5" r="1.0" fill="#A51C30" fill-opacity="0.95"/><circle cx="59.1" cy="56.1" r="1.0" fill="#A51C30" fill-opacity="0.95"/><circle cx="58.4" cy="56.8" r="1.0" fill="#A51C30" fill-opacity="0.95"/><circle cx="57.9" cy="57.6" r="1.0" fill="#A51C30" fill-opacity="0.95"/><circle cx="57.4" cy="58.5" r="1.0" fill="#A51C30" fill-opacity="0.95"/><circle cx="57.1" cy="59.7" r="1.0" fill="#A51C30" fill-opacity="0.95"/><circle cx="57.0" cy="61.4" r="1.0" fill="#A51C30" fill-opacity="0.95"/><circle cx="64.9" cy="77.3" r="1.0" fill="#111111" fill-opacity="0.55"/><circle cx="63.3" cy="79.4" r="1.0" fill="#111111" fill-opacity="0.55"/><circle cx="60.8" cy="79.7" r="1.0" fill="#111111" fill-opacity="0.55"/><circle cx="58.1" cy="79.0" r="1.0" fill="#111111" fill-opacity="0.55"/><circle cx="55.6" cy="78.4" r="1.0" fill="#111111" fill-opacity="0.55"/><circle cx="53.1" cy="77.1" r="1.0" fill="#111111" fill-opacity="0.55"/><circle cx="51.0" cy="76.4" r="1.0" fill="#111111" fill-opacity="0.55"/><circle cx="49.0" cy="77.2" r="1.0" fill="#111111" fill-opacity="0.55"/><circle cx="47.0" cy="77.0" r="1.0" fill="#111111" fill-opacity="0.55"/><circle cx="44.8" cy="78.2" r="1.0" fill="#111111" fill-opacity="0.55"/><circle cx="42.4" cy="79.6" r="1.0" fill="#111111" fill-opacity="0.55"/><circle cx="39.8" cy="80.7" r="1.0" fill="#111111" fill-opacity="0.55"/><circle cx="36.8" cy="82.5" r="1.0" fill="#111111" fill-opacity="0.55"/><circle cx="33.8" cy="83.1" r="1.0" fill="#111111" fill-opacity="0.55"/><circle cx="30.6" cy="83.6" r="1.0" fill="#111111" fill-opacity="0.55"/><circle cx="28.2" cy="82.3" r="1.0" fill="#111111" fill-opacity="0.55"/><circle cx="25.8" cy="81.0" r="1.0" fill="#111111" fill-opacity="0.55"/><circle cx="23.9" cy="78.8" r="1.0" fill="#111111" fill-opacity="0.55"/><circle cx="22.1" cy="76.8" r="1.0" fill="#111111" fill-opacity="0.55"/><circle cx="20.8" cy="74.2" r="1.0" fill="#111111" fill-opacity="0.55"/><circle cx="19.6" cy="71.8" r="1.0" fill="#111111" fill-opacity="0.55"/><circle cx="17.2" cy="70.4" r="1.0" fill="#111111" fill-opacity="0.55"/><circle cx="15.5" cy="68.3" r="1.0" fill="#111111" fill-opacity="0.55"/><circle cx="14.0" cy="66.1" r="1.0" fill="#111111" fill-opacity="0.55"/><circle cx="12.7" cy="63.7" r="1.0" fill="#111111" fill-opacity="0.55"/><circle cx="12.1" cy="61.1" r="1.0" fill="#111111" fill-opacity="0.55"/><circle cx="11.6" cy="58.4" r="1.0" fill="#111111" fill-opacity="0.55"/><circle cx="11.6" cy="55.7" r="1.0" fill="#111111" fill-opacity="0.55"/><circle cx="12.8" cy="52.9" r="1.0" fill="#111111" fill-opacity="0.55"/><circle cx="13.1" cy="50.4" r="1.0" fill="#111111" fill-opacity="0.55"/><circle cx="15.4" cy="48.0" r="1.0" fill="#111111" fill-opacity="0.55"/><circle cx="16.5" cy="45.8" r="1.0" fill="#111111" fill-opacity="0.55"/><circle cx="18.8" cy="43.9" r="1.0" fill="#111111" fill-opacity="0.55"/><circle cx="19.0" cy="41.8" r="1.0" fill="#111111" fill-opacity="0.55"/><circle cx="19.8" cy="39.9" r="1.0" fill="#111111" fill-opacity="0.55"/><circle cx="21.1" cy="38.2" r="1.0" fill="#111111" fill-opacity="0.55"/><circle cx="31.2" cy="40.5" r="1.0" fill="#A51C30" fill-opacity="0.95"/><circle cx="32.7" cy="39.9" r="1.0" fill="#A51C30" fill-opacity="0.95"/><circle cx="33.7" cy="39.1" r="1.0" fill="#A51C30" fill-opacity="0.95"/><circle cx="34.5" cy="38.2" r="1.0" fill="#A51C30" fill-opacity="0.95"/><circle cx="35.0" cy="37.1" r="1.0" fill="#A51C30" fill-opacity="0.95"/><circle cx="35.2" cy="35.7" r="1.0" fill="#A51C30" fill-opacity="0.95"/><circle cx="34.9" cy="33.4" r="1.0" fill="#A51C30" fill-opacity="0.95"/><circle cx="25.7" cy="19.4" r="1.0" fill="#111111" fill-opacity="0.55"/><circle cx="28.2" cy="18.7" r="1.0" fill="#111111" fill-opacity="0.55"/><circle cx="30.4" cy="17.6" r="1.0" fill="#111111" fill-opacity="0.55"/><circle cx="32.3" cy="15.7" r="1.0" fill="#111111" fill-opacity="0.55"/><circle cx="33.9" cy="13.0" r="1.0" fill="#111111" fill-opacity="0.55"/><circle cx="36.1" cy="11.4" r="1.0" fill="#111111" fill-opacity="0.55"/><circle cx="38.7" cy="10.5" r="1.0" fill="#111111" fill-opacity="0.55"/><circle cx="41.1" cy="8.7" r="1.0" fill="#111111" fill-opacity="0.55"/><circle cx="43.8" cy="7.8" r="1.0" fill="#111111" fill-opacity="0.55"/><circle cx="46.6" cy="7.5" r="1.0" fill="#111111" fill-opacity="0.55"/><circle cx="49.4" cy="6.9" r="1.0" fill="#111111" fill-opacity="0.55"/><circle cx="52.1" cy="9.2" r="1.0" fill="#111111" fill-opacity="0.55"/><circle cx="54.6" cy="10.6" r="1.0" fill="#111111" fill-opacity="0.55"/><circle cx="50.5" cy="38.1" r="1.0" fill="#A51C30" fill-opacity="0.95"/><circle cx="50.9" cy="39.0" r="1.0" fill="#A51C30" fill-opacity="0.95"/><circle cx="51.4" cy="39.6" r="1.0" fill="#A51C30" fill-opacity="0.95"/><circle cx="51.9" cy="40.0" r="1.0" fill="#A51C30" fill-opacity="0.95"/><circle cx="52.4" cy="40.4" r="1.0" fill="#A51C30" fill-opacity="0.95"/><circle cx="53.0" cy="40.7" r="1.0" fill="#A51C30" fill-opacity="0.95"/><circle cx="53.6" cy="40.9" r="1.0" fill="#A51C30" fill-opacity="0.95"/><circle cx="54.3" cy="41.0" r="1.0" fill="#A51C30" fill-opacity="0.95"/><circle cx="55.3" cy="40.9" r="1.0" fill="#A51C30" fill-opacity="0.95"/><circle cx="73.8" cy="26.3" r="1.0" fill="#111111" fill-opacity="0.55"/><circle cx="75.1" cy="28.3" r="1.0" fill="#111111" fill-opacity="0.55"/><circle cx="75.6" cy="30.8" r="1.0" fill="#111111" fill-opacity="0.55"/><circle cx="77.2" cy="32.5" r="1.0" fill="#111111" fill-opacity="0.55"/><circle cx="76.9" cy="35.1" r="1.0" fill="#111111" fill-opacity="0.55"/><circle cx="77.8" cy="37.2" r="1.0" fill="#111111" fill-opacity="0.55"/><circle cx="79.4" cy="39.0" r="1.0" fill="#111111" fill-opacity="0.55"/><circle cx="80.4" cy="41.1" r="1.0" fill="#111111" fill-opacity="0.55"/><circle cx="81.2" cy="43.3" r="1.0" fill="#111111" fill-opacity="0.55"/><circle cx="84.5" cy="45.4" r="1.0" fill="#111111" fill-opacity="0.55"/><circle cx="48" cy="48" r="2.2" fill="#A51C30"/></g><text x="126" y="33" fill="#111111" font-family="'EB Garamond', Garamond, 'Times New Roman', Georgia, serif" font-size="19" font-weight="700">Open LiDAR</text><line x1="126" y1="41" x2="150" y2="41" stroke="#A51C30" stroke-width="2"/><text x="126" y="58" fill="#555555" font-family="'EB Garamond', Garamond, 'Times New Roman', Georgia, serif" font-size="13" font-weight="400" font-style="italic">Python · C++</text><text x="126" y="79" fill="#111111" font-family="'EB Garamond', Garamond, 'Times New Roman', Georgia, serif" font-size="13" font-weight="400">Open source 360° LiDAR and robot</text><text x="126" y="95" fill="#111111" font-family="'EB Garamond', Garamond, 'Times New Roman', Georgia, serif" font-size="13" font-weight="400">platform. 240 Hz real-time</text><text x="126" y="111" fill="#111111" font-family="'EB Garamond', Garamond, 'Times New Roman', Georgia, serif" font-size="13" font-weight="400">mapping, slip ring removed.</text></svg>
